<svg xmlns="http://www.w3.org/2000/svg" xmlns:xlink="http://www.w3.org/1999/xlink" viewBox="0 0 76 81" fill="#fff" fill-rule="evenodd" stroke="#000" stroke-linecap="round" stroke-linejoin="round"><use xlink:href="#A" x=".5" y=".5"/><symbol id="A" overflow="visible"><g stroke="none"><path d="M67.576 80H4.951v-4.952H0v-8.192h4.951v-4.189H0v-8.19h4.951v-4.193H0v-8.188h4.951v-4.191H0v-8.192h4.951v-4.191H0v-8.188h4.951v-4.191H0V4.952h4.951V0h62.625v2.477H75v72.76h-7.424V80z"/><path d="M25.131 29.905H52.35V15.049H25.131v14.856zM10.279 57.334h-7.42v2.475h7.42v-2.475zm0-12.381h-7.42v2.477h7.42v-2.477zm0-37.333h-7.42v2.475h7.42V7.62zm0 12.381h-7.42v2.477h7.42v-2.477zm0 12.381h-7.42v2.475h7.42v-2.475zM67.195 5.143v14.858h4.951V5.143h-4.951zm0 49.714h4.951V42.478h-4.951v12.379zm0-17.521h4.951V24.953h-4.951v12.383zm0 34.854h4.951V59.809h-4.951V72.19zM7.806 6.479h3.81v4.952h-3.81v7.427h3.81v4.952h-3.81v7.429h3.81v4.952h-3.81v7.429h3.81v4.952h-3.81V56h3.81v4.952h-3.81v7.429h3.81v4.952h-3.81v3.809h56.915V2.668H7.806v3.811zm14.848 6.093h32.17v19.81h-32.17v-19.81zM10.279 69.715h-7.42v2.475h7.42v-2.475z" fill="#515150"/></g></symbol></svg>