<svg xmlns="http://www.w3.org/2000/svg" xmlns:xlink="http://www.w3.org/1999/xlink" viewBox="0 0 126 81" fill="#fff" fill-rule="evenodd" stroke="#000" stroke-linecap="round" stroke-linejoin="round"><use xlink:href="#A" x=".5" y=".5"/><symbol id="A" overflow="visible"><g stroke="none"><path d="M115.876 80H9.125C4.016 80 0 76.009 0 70.93V9.071C0 3.991 4.016 0 9.125 0h106.751C120.985 0 125 3.991 125 9.071V70.93c0 4.898-4.198 9.07-9.124 9.07z"/><path d="M115.876 2.721H9.125c-3.467 0-6.387 2.903-6.387 6.35V70.93c0 3.447 2.92 6.349 6.387 6.349h106.751c3.468 0 6.388-2.902 6.388-6.349V9.071c0-3.447-2.92-6.35-6.388-6.35zM66.059 74.014h-7.117V70.93h7.117v3.084zm48.175-4.717H10.585V10.703h103.649v58.594z" fill="#525352"/><path d="M68.613 64.036s-.182 0 0 0c-1.46 0-2.737-.907-3.284-2.177L50.183 28.663 40.146 51.156c-.548 1.27-1.825 2.177-3.284 2.177H16.789v-7.257h17.7l12.227-27.755c.547-1.269 1.825-2.177 3.284-2.177h0c1.46 0 2.738.907 3.285 2.177l15.51 34.104 10.949-19.954c.729-1.089 1.824-1.814 3.284-1.814h25.73v7.256h-23.54l-13.504 24.49c-.548.907-1.825 1.633-3.102 1.633z" fill="#515150"/></g></symbol></svg>